<svg xmlns="http://www.w3.org/2000/svg" width="214" height="35" viewBox="0 0 214 35" fill="none">
    <g clip-path="url(#clip0_892_3179)">
        <path fill-rule="evenodd" clip-rule="evenodd" d="M104.467 26.473H109.927V1.39961H104.467V26.473ZM94.3688 9.2092V11.6813C94.1338 11.2727 93.8478 10.8998 93.5107 10.5729C93.143 10.2103 92.7292 9.89362 92.2798 9.64335C91.7996 9.37264 91.294 9.16323 90.7628 9.01511C90.2265 8.86188 89.6749 8.78526 89.1232 8.78016C87.9485 8.76483 86.7891 9.00489 85.7164 9.4799C84.7102 9.92427 83.8062 10.5729 83.0554 11.3799C82.2994 12.2125 81.7172 13.1829 81.3443 14.2453C80.9306 15.3997 80.7263 16.6204 80.7365 17.8462C80.7263 19.0721 80.9306 20.2928 81.3443 21.4471C81.7172 22.5095 82.2994 23.4799 83.0554 24.3125C83.8011 25.1195 84.7102 25.7682 85.7164 26.2125C86.7891 26.6875 87.9536 26.9225 89.1283 26.9123C89.6851 26.9123 90.2367 26.8306 90.7679 26.6773C91.294 26.5292 91.8047 26.3249 92.2849 26.0695C92.7343 25.8295 93.1481 25.5281 93.5158 25.1757C93.858 24.8488 94.1492 24.4657 94.3739 24.0469V26.4832H99.834V9.20409H94.3739L94.3688 9.2092ZM88.5869 21.8915C88.1017 21.6616 87.6625 21.3398 87.2998 20.9415C86.9321 20.5328 86.6511 20.0578 86.4622 19.542C86.2579 19.0005 86.1557 18.4234 86.1608 17.8411C86.1506 16.7072 86.5592 15.6142 87.3049 14.7612C87.6625 14.3526 88.1017 14.0257 88.592 13.7959C89.1181 13.5609 89.6902 13.4383 90.2673 13.4383C90.8445 13.4383 91.4166 13.5609 91.9427 13.7959C92.433 14.0257 92.8671 14.3577 93.2298 14.7612C93.9755 15.6142 94.379 16.7072 94.3739 17.8411C94.3739 18.4234 94.2717 19.0005 94.0725 19.542C93.8836 20.0578 93.5975 20.5328 93.2349 20.9415C92.8722 21.3398 92.4381 21.6616 91.9478 21.8915C91.4217 22.1264 90.8496 22.249 90.2725 22.249C89.6953 22.249 89.1232 22.1264 88.5972 21.8915H88.5869ZM79.1633 22.2848C78.8569 22.3512 78.5453 22.3767 78.2337 22.3767H77.1969C76.8853 22.3767 76.5738 22.3409 76.2673 22.2694C75.9864 22.1979 75.7259 22.06 75.5165 21.8557C75.2764 21.6106 75.1079 21.3092 75.0159 20.9772C74.8831 20.4767 74.8218 19.9608 74.8372 19.4398V13.2902H78.7649V9.2092H74.8372V4.08623H69.4128V9.2092H66.7007V13.2902H69.4128V20.6707C69.4128 22.1009 69.6069 23.2297 70.0002 24.0571C70.322 24.7926 70.8379 25.426 71.4968 25.8856C72.0944 26.2738 72.7686 26.5292 73.4785 26.6211C74.1527 26.7131 74.8321 26.7642 75.5114 26.7642C76.3184 26.7642 77.0283 26.7335 77.6362 26.6722C78.244 26.6109 78.7496 26.5445 79.1531 26.473V22.2848H79.1633ZM58.3191 26.4781H63.7791V9.20409H58.3191V26.4679V26.4781ZM57.8032 4.82684C58.1607 5.66449 58.8247 6.32849 59.6624 6.69113C60.0965 6.87501 60.5664 6.96694 61.0363 6.96184C61.5113 6.96184 61.9863 6.87501 62.4307 6.69113C62.8495 6.51747 63.2326 6.26209 63.5544 5.94031C63.8711 5.62363 64.1264 5.24567 64.3052 4.83195C64.484 4.40801 64.5759 3.94833 64.5759 3.48864C64.5759 3.02384 64.484 2.55905 64.3052 2.13001C64.1367 1.71118 63.8813 1.33321 63.5544 1.02165C62.8751 0.352547 61.971 -0.00498791 61.0312 0.00011973C60.5715 -0.0100956 60.1118 0.0716267 59.6879 0.240179C59.2589 0.408731 58.8707 0.664113 58.5438 0.991002C58.2169 1.31789 57.9615 1.70096 57.7879 2.13001C57.6142 2.55905 57.5274 3.01363 57.5376 3.47332C57.5376 3.933 57.6244 4.39269 57.8032 4.81663V4.82684ZM53.7886 9.21431H48.3285V11.6864C47.8382 10.7619 47.0669 10.0213 46.1322 9.55652C45.1669 9.05086 44.0994 8.78526 43.0115 8.78526C41.3055 8.74951 39.6353 9.26538 38.2409 10.246C36.8465 11.2267 35.7995 12.6313 35.2529 14.2504C34.8545 15.4099 34.6553 16.6255 34.6656 17.8513C34.6502 19.0567 34.8597 20.2519 35.2887 21.3807C35.682 22.4022 36.2694 23.342 37.0202 24.1388C37.771 24.9254 38.6751 25.5383 39.6813 25.9469C40.7641 26.3862 41.9235 26.6058 43.0881 26.5905C44.1709 26.6007 45.2333 26.3402 46.1935 25.8397C47.072 25.4055 47.8126 24.7364 48.3336 23.9039V26.805C48.3336 28.1637 47.9505 29.1545 47.1895 29.7777C46.4285 30.4008 45.4069 30.7073 44.1198 30.7073C42.9297 30.7073 42.0206 30.411 41.3872 29.8134C40.7998 29.2976 40.4219 28.5825 40.335 27.8061H34.875C34.9209 28.7459 35.161 29.6704 35.59 30.5081C36.0293 31.3661 36.6371 32.1272 37.3726 32.7452C38.1643 33.4092 39.0786 33.9098 40.0695 34.2162C41.1523 34.5737 42.5007 34.7525 44.1198 34.7525C45.4887 34.7781 46.8575 34.6248 48.1906 34.2877C49.2326 34.0119 50.2183 33.5369 51.0815 32.8882C51.9703 32.214 52.6751 31.3202 53.1144 30.2935C53.5638 29.2567 53.7937 27.9491 53.7937 26.3709V9.20409L53.7886 9.21431ZM45.8819 13.801C46.3774 14.0308 46.8218 14.3577 47.1844 14.7663C47.9301 15.6193 48.3336 16.7123 48.3285 17.8462C48.3285 18.4285 48.2264 19.0057 48.0272 19.5471C47.8382 20.0629 47.5521 20.5379 47.1895 20.9466C46.8218 21.345 46.3825 21.6718 45.8871 21.8966C45.3559 22.1417 44.7787 22.2643 44.1913 22.2541C43.6142 22.2643 43.037 22.1417 42.516 21.8966C42.0257 21.6667 41.5864 21.345 41.2238 20.9415C40.8611 20.5379 40.5853 20.068 40.4117 19.5522C40.2176 19.0057 40.1205 18.4285 40.1256 17.8513C40.1256 17.2793 40.2176 16.7072 40.4117 16.1658C40.5955 15.655 40.8714 15.18 41.234 14.7663C41.5915 14.3577 42.0308 14.0308 42.5211 13.801C43.0472 13.5558 43.6193 13.4332 44.1964 13.4434C44.7838 13.4383 45.361 13.5609 45.8922 13.801H45.8819ZM25.6301 26.4832H31.0902V9.20409H25.6301V26.4679V26.4832ZM25.1143 4.83195C25.4718 5.6696 26.1358 6.3336 26.9683 6.69624C27.4025 6.88011 27.8724 6.97205 28.3423 6.96694C28.8173 6.96694 29.2923 6.88011 29.7367 6.69624C30.1555 6.52258 30.5386 6.2672 30.8604 5.94541C31.177 5.62874 31.4324 5.25078 31.6112 4.83706C31.79 4.41312 31.8819 3.95343 31.8819 3.49375C31.8819 3.02895 31.79 2.56416 31.6112 2.13511C31.4426 1.71629 31.1873 1.33832 30.8604 1.02676C30.1811 0.352547 29.277 -0.00498791 28.3372 0.00011973C27.8775 -0.0100956 27.4178 0.0716267 26.9939 0.240179C26.5648 0.408731 26.1767 0.664113 25.8498 0.991002C25.5229 1.31789 25.2675 1.70096 25.0938 2.13001C24.9202 2.55905 24.8334 3.01363 24.8436 3.47332C24.8436 3.933 24.9304 4.39269 25.1092 4.81663L25.1143 4.83195ZM8.8924 6.42553C9.96501 6.4051 11.0325 6.61962 12.0132 7.05377C12.8968 7.44706 13.6834 8.01912 14.332 8.7393C14.9654 9.44415 15.4557 10.2665 15.7775 11.1552C16.4415 12.9633 16.4415 14.9502 15.7775 16.7583C15.4506 17.6419 14.9603 18.4591 14.332 19.1589C13.6834 19.874 12.8917 20.4511 12.0132 20.8444C11.0274 21.2786 9.96501 21.488 8.8924 21.4726H5.78696V6.41021H8.8924V6.42553ZM0 1.39961V26.473H9.17332C11.2419 26.473 13.0858 26.1206 14.7049 25.4157C16.2423 24.7671 17.6367 23.8119 18.791 22.6014C19.8892 21.4471 20.7421 20.0834 21.3091 18.5919C21.876 17.1056 22.1672 15.5274 22.1672 13.9338C22.1672 12.3402 21.8709 10.7619 21.2938 9.2756C20.7217 7.78417 19.8585 6.42043 18.7604 5.2661C17.606 4.0658 16.2219 3.10557 14.6896 2.4569C13.0858 1.75204 11.247 1.39961 9.17332 1.39961H0Z" fill="white"/>
        <path fill-rule="evenodd" clip-rule="evenodd" d="M214 22.2796C213.694 22.346 213.382 22.3715 213.07 22.3715H212.034C211.722 22.3715 211.41 22.3358 211.104 22.2643C210.823 22.1928 210.563 22.0549 210.353 21.8506C210.113 21.6054 209.945 21.304 209.853 20.9772C209.72 20.4766 209.659 19.9556 209.674 19.4398V13.2902H213.602V9.20915H209.674V4.08618H204.25V9.20915H201.537V13.2902H204.25V20.6707C204.25 22.1059 204.444 23.2296 204.837 24.0571C205.159 24.7926 205.675 25.4259 206.333 25.8856C206.931 26.2738 207.605 26.5292 208.315 26.6211C208.989 26.713 209.669 26.7641 210.348 26.7641C211.155 26.7641 211.865 26.7335 212.473 26.6722C213.081 26.6109 213.586 26.5445 213.99 26.473V22.2847L214 22.2796ZM193.386 13.3617C194.039 14.0052 194.366 14.8888 194.366 16.0125H187.154C187.154 14.8429 187.502 13.949 188.191 13.3259C188.881 12.7028 189.759 12.3963 190.832 12.3963C191.879 12.3963 192.732 12.7181 193.386 13.3617ZM199.54 19.1639C199.627 18.7043 199.683 18.2343 199.704 17.7644C199.714 17.3609 199.724 16.9779 199.724 16.6203C199.724 15.5835 199.515 14.5568 199.096 13.6068C198.682 12.6568 198.074 11.8038 197.313 11.1041C196.501 10.3635 195.556 9.7812 194.53 9.38281C193.36 8.93844 192.119 8.71881 190.873 8.73924C189.524 8.71371 188.181 8.95376 186.93 9.45431C185.852 9.89868 184.876 10.5627 184.074 11.4054C183.298 12.2329 182.7 13.2186 182.328 14.2913C181.929 15.4303 181.73 16.6305 181.74 17.836C181.725 19.0873 181.929 20.3285 182.348 21.5083C182.731 22.5861 183.339 23.5667 184.131 24.3942C184.948 25.2267 185.944 25.8703 187.042 26.2738C189.402 27.0859 191.955 27.1523 194.356 26.473C195.275 26.1972 196.144 25.7681 196.925 25.2012C197.625 24.6955 198.217 24.0571 198.677 23.3216C199.111 22.6218 199.397 21.8455 199.515 21.0282H194.162C193.968 21.585 193.61 22.0702 193.146 22.4277C192.655 22.8108 191.935 22.9998 190.985 22.9998C190.377 23.0202 189.769 22.9129 189.197 22.6933C188.753 22.5146 188.355 22.2285 188.038 21.871C187.737 21.5186 187.517 21.0997 187.394 20.6554C187.262 20.1701 187.18 19.6696 187.159 19.169H199.545L199.54 19.1639ZM171.77 15.6907C171.3 15.5528 170.84 15.3843 170.396 15.1902C170.084 15.0625 169.798 14.8735 169.558 14.6335C169.364 14.424 169.262 14.1482 169.272 13.8622C169.257 13.6324 169.308 13.4025 169.415 13.1931C169.523 12.9888 169.681 12.8151 169.88 12.6977C170.309 12.4372 170.805 12.3095 171.31 12.3197C172.071 12.3197 172.638 12.5189 173.006 12.9122C173.374 13.3055 173.558 13.8622 173.558 14.5773H178.946C178.946 13.7907 178.793 13.0092 178.481 12.2839C178.17 11.5638 177.7 10.9304 177.108 10.4197C176.428 9.85271 175.637 9.43388 174.789 9.18361C173.731 8.86693 172.628 8.71881 171.525 8.73414C169.191 8.73414 167.342 9.16318 165.973 10.0213C164.604 10.8793 163.92 12.2073 163.92 14.0001C163.894 14.7152 164.042 15.4303 164.349 16.0789C164.624 16.6152 165.023 17.0851 165.508 17.4376C166.029 17.8155 166.601 18.122 167.204 18.3518C167.847 18.6021 168.527 18.8371 169.237 19.0516C170.044 19.3172 170.743 19.5368 171.326 19.7156C171.816 19.8586 172.291 20.0373 172.756 20.2519C173.062 20.3898 173.343 20.5839 173.578 20.8239C173.767 21.0487 173.859 21.3347 173.849 21.6309C173.849 22.203 173.639 22.6167 173.226 22.867C172.73 23.1377 172.168 23.2654 171.601 23.2449C170.794 23.2449 170.13 23.0457 169.62 22.6525C169.109 22.2592 168.854 21.6054 168.854 20.7013H163.501C163.501 22.7086 164.211 24.246 165.626 25.3238C167.04 26.3964 168.976 26.9378 171.428 26.9378C172.439 26.9429 173.45 26.8458 174.446 26.6517C175.325 26.4832 176.163 26.1614 176.929 25.7017C177.623 25.2778 178.201 24.6904 178.604 23.9804C179.008 23.2756 179.212 22.4124 179.212 21.3858C179.237 20.6656 179.084 19.9505 178.767 19.307C178.476 18.7655 178.068 18.2956 177.572 17.9279C177.036 17.5397 176.449 17.223 175.825 16.9983C175.161 16.748 174.446 16.5131 173.685 16.2986C172.97 16.0585 172.342 15.8593 171.796 15.6907H171.77ZM153.566 15.6907C153.096 15.5528 152.637 15.3843 152.192 15.1902C151.881 15.0625 151.595 14.8735 151.355 14.6335C151.161 14.424 151.059 14.1482 151.069 13.8622C151.053 13.6324 151.105 13.4025 151.212 13.1931C151.319 12.9837 151.477 12.8151 151.677 12.6977C152.106 12.4372 152.601 12.3095 153.107 12.3197C153.868 12.3197 154.435 12.5189 154.802 12.9122C155.17 13.3055 155.354 13.8622 155.354 14.5773H160.743C160.743 13.7907 160.589 13.0092 160.278 12.2839C159.966 11.5638 159.496 10.9304 158.904 10.4197C158.225 9.85271 157.433 9.43388 156.585 9.18361C155.528 8.86693 154.424 8.71881 153.321 8.73414C150.987 8.73414 149.138 9.16318 147.769 10.0213C146.4 10.8793 145.716 12.2073 145.716 14.0001C145.69 14.7152 145.839 15.4303 146.145 16.0789C146.421 16.6152 146.819 17.0851 147.304 17.4376C147.825 17.8155 148.397 18.122 149 18.3518C149.644 18.6021 150.323 18.8371 151.033 19.0516C151.84 19.3172 152.54 19.5368 153.122 19.7156C153.612 19.8586 154.087 20.0373 154.552 20.2519C154.859 20.3898 155.14 20.5839 155.375 20.8239C155.563 21.0487 155.655 21.3347 155.645 21.6309C155.645 22.203 155.436 22.6167 155.022 22.867C154.527 23.1377 153.965 23.2654 153.398 23.2449C152.591 23.2449 151.927 23.0457 151.416 22.6525C150.905 22.2592 150.65 21.6054 150.65 20.7013H145.297C145.297 22.7086 146.007 24.246 147.422 25.3238C148.837 26.3964 150.773 26.9378 153.224 26.9378C154.235 26.9429 155.247 26.8458 156.243 26.6517C157.121 26.4832 157.959 26.1614 158.725 25.7017C159.42 25.2778 159.997 24.6904 160.4 23.9804C160.804 23.2756 161.008 22.4124 161.008 21.3858C161.034 20.6656 160.881 19.9505 160.564 19.307C160.273 18.7655 159.864 18.2956 159.369 17.9279C158.832 17.5397 158.245 17.223 157.622 16.9983C156.958 16.748 156.243 16.5131 155.482 16.2986C154.767 16.0585 154.138 15.8593 153.592 15.6907H153.566Z" fill="white"/>
        <path fill-rule="evenodd" clip-rule="evenodd" d="M124.969 17.0698L122.052 26.5087H127.543L130.459 17.0698H124.969Z" fill="white"/>
        <path fill-rule="evenodd" clip-rule="evenodd" d="M129.974 1.38916L127.068 10.8025H129.867C131.466 10.8025 132.88 9.76058 133.355 8.22829L135.47 1.38916H129.979H129.974Z" fill="#00D1FF"/>
        <path fill-rule="evenodd" clip-rule="evenodd" d="M135.465 1.38916L133.355 8.22829C133.187 8.7697 132.901 9.24471 132.528 9.638L137.738 26.5085H143.228L135.47 1.38916H135.465Z" fill="white"/>
    </g>
    <defs>
        <clipPath id="clip0_892_3179">
            <rect width="214" height="34.7473" fill="white"/>
        </clipPath>
    </defs>
</svg>